<svg width="24" height="25" viewBox="0 0 24 25" fill="none" xmlns="http://www.w3.org/2000/svg">
<path d="M23.0582 5.86894H19.1637C18.8398 5.86894 18.5421 6.05143 18.389 6.34383C18.389 6.34383 16.8357 9.27521 16.3367 10.2626C14.9944 12.9187 14.1253 12.0848 14.1253 10.8521V6.60171C14.1253 5.86211 13.5401 5.26249 12.8184 5.26249H9.89016C9.07937 5.20074 8.2952 5.57359 7.81774 6.24797C7.81774 6.24797 9.30462 6.00157 9.30462 8.05458C9.30462 8.5637 9.3302 10.0282 9.3535 11.2565C9.36254 11.6273 9.14489 11.9645 8.8084 12.1011C8.47196 12.2376 8.08804 12.1447 7.84681 11.8682C6.64826 10.16 5.65543 8.30968 4.88996 6.35747C4.75575 6.05928 4.46431 5.86848 4.1438 5.86894H0.605351C0.407784 5.86757 0.222145 5.96576 0.108798 6.13154C-0.00454908 6.29738 -0.0311798 6.50972 0.0376163 6.6995C1.11206 9.71963 5.74043 19.2104 11.0233 19.2104H13.2468C13.732 19.2104 14.1253 18.8074 14.1253 18.3102V16.9344C14.1253 16.5816 14.3298 16.2626 14.6458 16.1225C14.9617 15.9825 15.3287 16.0482 15.5795 16.2897L18.241 18.8521C18.48 19.0823 18.7956 19.2104 19.1235 19.2104H22.6185C24.3041 19.2104 24.3041 18.0118 23.3851 17.0843C22.7383 16.4316 20.4044 13.9107 20.4044 13.9107C19.9914 13.4723 19.9521 12.7909 20.3117 12.3056C21.066 11.2883 22.2999 9.62304 22.8232 8.90965C23.5385 7.93457 24.8331 5.86894 23.0582 5.86894Z" fill="black"/>
</svg>
