<svg width="24" height="25" viewBox="0 0 24 25" fill="none" xmlns="http://www.w3.org/2000/svg">
<path fill-rule="evenodd" clip-rule="evenodd" d="M12.4998 12.5849C15.6943 12.5849 18.2922 10.0475 18.2922 6.92761C18.2922 3.80611 15.6946 1.26758 12.4998 1.26758C9.30558 1.26758 6.70743 3.80638 6.70743 6.92761C6.70743 10.0475 9.30558 12.5849 12.4998 12.5849ZM12.4998 4.58439C13.8223 4.58439 14.8981 5.63545 14.8981 6.92761C14.8981 8.21869 13.822 9.26975 12.4998 9.26975C11.1781 9.26975 10.1021 8.21869 10.1021 6.92761C10.1018 5.63518 11.1784 4.58439 12.4998 4.58439ZM18.7392 13.5545C19.2382 14.3294 18.9998 15.3529 18.2066 15.8405C17.1719 16.476 16.0348 16.9361 14.8432 17.2012L18.0807 20.3661C18.3995 20.6766 18.5787 21.0984 18.5787 21.5382C18.5787 21.9781 18.3995 22.3998 18.0807 22.7104C17.7628 23.0214 17.3314 23.1962 16.8816 23.1962C16.4317 23.1962 16.0003 23.0214 15.6825 22.7104L12.4993 19.6013L9.31806 22.7101C8.88941 23.1291 8.26455 23.2928 7.67887 23.1395C7.09319 22.9863 6.63566 22.5394 6.47863 21.9672C6.3216 21.3951 6.48893 20.7845 6.91759 20.3655L10.1556 17.2012C8.96431 16.9358 7.82739 16.4758 6.79282 15.8405C5.99995 15.3527 5.76188 14.3292 6.26105 13.5545C6.50031 13.1819 6.8814 12.9176 7.32031 12.8198C7.75922 12.722 8.2199 12.7988 8.6008 13.0333C10.9719 14.4898 14.0261 14.4909 16.3992 13.0333C16.7801 12.7989 17.2408 12.7221 17.6798 12.8199C18.1187 12.9177 18.4998 13.1819 18.7392 13.5545Z" fill="black"/>
</svg>
