<svg width="24" height="25" viewBox="0 0 24 25" fill="none" xmlns="http://www.w3.org/2000/svg">
<path opacity="0.9" fill-rule="evenodd" clip-rule="evenodd" d="M11.6823 7.97878L11.7299 8.74575L10.9351 8.65184C8.04202 8.29183 5.51452 7.07094 3.36854 5.02047L2.31939 4.00305L2.04915 4.75437C1.47689 6.42919 1.8425 8.19792 3.03472 9.3875C3.67056 10.0449 3.5275 10.1388 2.43066 9.74751C2.04915 9.62229 1.71533 9.52838 1.68354 9.57533C1.57226 9.6849 1.95377 11.1093 2.2558 11.6728C2.6691 12.4554 3.5116 13.2224 4.43358 13.6763L5.2125 14.0363L4.29052 14.0519C3.40033 14.0519 3.36854 14.0676 3.46391 14.3963C3.78184 15.4137 5.03764 16.4937 6.4365 16.9633L7.42207 17.292L6.56367 17.7929C5.29198 18.5129 3.79773 18.9199 2.30349 18.9512C1.58816 18.9668 1 19.0294 1 19.0764C1 19.2329 2.93934 20.1094 4.06797 20.4538C7.45386 21.4712 11.4756 21.0329 14.4959 19.2955C16.6419 18.059 18.7879 15.6015 19.7893 13.2224C20.3298 11.9545 20.8703 9.63794 20.8703 8.52662C20.8703 7.8066 20.918 7.71269 21.8081 6.8518C22.3327 6.35092 22.8255 5.80309 22.9209 5.64656C23.0798 5.34917 23.0639 5.34917 22.2532 5.61526C20.9021 6.08483 20.7113 6.02222 21.3789 5.31786C21.8717 4.81698 22.4599 3.90914 22.4599 3.64305C22.4599 3.59609 22.2214 3.67435 21.9512 3.81523C21.6651 3.97175 21.0292 4.20654 20.5523 4.34741L19.6939 4.6135L18.915 4.09697C18.4858 3.81523 17.8818 3.50218 17.5639 3.40826C16.7531 3.18913 15.5132 3.22043 14.782 3.47087C12.795 4.17523 11.5392 5.99092 11.6823 7.97878Z" fill="black"/>
</svg>
